<svg focusable="false" viewBox="0 0 50 50" xmlns="http://www.w3.org/2000/svg" xmlns:xlink="http://www.w3.org/1999/xlink"><defs><circle id="a" cx="25" cy="25" r="25"/><path id="b" d="m28.341 24.226c.13417.074195.28572.11595.44605.11595.54866 0 .99265-.48689.99265-1.09v-4.3984c0-.51601-.32503-.94741-.76256-1.0612-.17076-2.4631-2.5988-2.7198-3.8396-2.6884-.43106.010905-18.994.05658-19.221.05658 0 0-3.1197-.47741-3.3257 2.6713-.37638.15475-.64484.5534-.64484 1.0217v4.3984c0 .60308.44514 1.09.99265 1.09.12134 0 .23755-.023812.34498-.067428 1.108 3.7947 3.3957 6.9303 6.3391 8.7812l.010906.022484-.0019687.046428c-2.5219.23348-4.6484.55931-5.8973.9084 0 0-4.1667-5.7175-3.7434-16.347 0 0 1.4984-17.86 15.763-17.685 14.264.17528 15.54 15.159 15.54 15.159 1.1052 4.6176.056827 12.876-2.808 19.05-1.4643-.66643-3.7432-1.0673-6.3558-1.2715 2.868-1.8726 5.0911-4.9752 6.1711-8.7128z"/><path id="c" d="m10.39.16159-.0010791-.052306c0 2.9342 2.736 5.9777 6.1111 5.9777 3.3404 0 6.0548-2.9812 6.1102-5.8872 1.7479.46765 4.3462 1.7611 6.5069 3.8858 2.1601 2.1241 3.8828 5.3188 3.8828 7.7978v14.899h-33v-14.899c0-2.474 1.6864-5.6632 3.8073-7.7849 2.1905-2.1913 4.8444-3.5024 6.5827-3.9369z"/><mask id="d" fill="#fff"><use fill="#fff" fill-rule="evenodd" xlink:href="#a"/></mask><mask id="e" fill="#fff"><use fill="#fff" fill-rule="evenodd" xlink:href="#b"/></mask><mask id="f" fill="#fff"><use fill="#fff" fill-rule="evenodd" xlink:href="#c"/></mask></defs><g fill="none" fill-rule="evenodd"><use fill="#d6897d" xlink:href="#a"/><g mask="url(#d)"><path d="m14.501.33036c7.0752 0 12.864 6.4472 13.507 14.662.46211.22296.77868.72393.77868 1.2989v4.4172c0 .73506-.51751 1.3488-1.1948 1.4184l-.12877.0065819c-.077845 0-.15399-.0071601-.22792-.020885-1.135 3.6778-3.3575 6.7311-6.2057 8.5998l.14556 1.6382-.0008237.066626-1.5397 13.502h-9.7649l-.040562-.28367-1.8878-13.242.069522-1.6564c-2.8624-1.8636-5.0973-4.9217-6.239-8.6096l-.11761.0055081c-.73849 0-1.3235-.64438-1.3235-1.425v-4.4172c0-.52352.26311-.986.65913-1.2339.61618-8.2455 6.4167-14.727 13.511-14.727z" fill="#e7e5e2" transform="translate(10.411 5.9599)"/><g transform="translate(18.6637 20.66078)"><path d="m1.4365 3.4696c-.89374.0654-1.1439-1.2144-.87459-2.0502.050647-.1584.3465-.8796.87026-.8796.52315 0 .75415.3942.78626.462.38479.8148.19579 2.3958-.78194 2.4678" fill="#635e59"/><path d="m11.411 3.4696c.89374.0654 1.1439-1.2144.87459-2.0502-.050647-.1584-.3465-.8796-.87026-.8796-.52315 0-.75415.3942-.78626.462-.38479.8148-.19579 2.3958.78194 2.4678" fill="#635e59"/><g fill="#59514b"><path d="m6.7072 4.9409c.52561-.078598.88458-.029272 1.0131.12399.48524.57933.33003 1.1922-.50246 1.6954-.4377.26444-1.0402.35751-1.3591.22039-.15597-.067052-.33836.0014161-.40738.15293s.0014578.32869.15743.39574c.52716.22663 1.3378.10139 1.9353-.25958 1.1313-.68374 1.3902-1.7061.65519-2.5837-.31105-.37083-.86166-.44649-1.5861-.33817-.16857.025208-.28419.17839-.25824.34215.025949.16376.18364.27607.35221.25086z"/><path d="m10.228 9.3153c-.027857.061983-.09174.18066-.19441.33698-.17379.26462-.39203.52991-.65709.7773-.78986.7372-1.8179 1.1635-3.1264 1.1245-1.2758-.038015-2.2993-.45772-3.1018-1.1345-.29462-.24849-.53785-.51461-.73227-.77986-.11465-.15642-.18624-.27502-.21755-.33682-.075311-.14866-.26042-.20986-.41345-.1367-.15303.073159-.21604.25298-.14072.40164.045362.089541.13364.23579.26858.4199.22156.30228.49706.60371.83048.88492.90584.76402 2.0635 1.2387 3.4878 1.2812 1.4832.044192 2.6689-.44746 3.5733-1.2916.3024-.28224.55097-.5844.74987-.88725.12094-.18415.19961-.33029.23976-.41963.068244-.15184-.0031489-.32868-.15946-.39497s-.33835.0030589-.40659.1549z"/></g></g><g transform="translate(9.0874 3.3114)"><use fill="#38383a" xlink:href="#b"/><g fill="#f6b873" mask="url(#e)"><path d="m0 0h46v52h-46z" transform="translate(-7.2794 -1.9737)"/></g></g><g transform="translate(8.4257 36.909)"><use fill="#d8a25d" xlink:href="#c"/><g fill="#c6c2bf" mask="url(#f)"><path d="m0 61h77v-61h-77z" transform="translate(-22 -17.043)"/></g></g><g transform="translate(7.7308 5.2315)"><path d="m3.175 16.898c0-7.9304 6.19-14.36 13.826-14.36 7.6353 0 13.825 6.4295 13.825 14.36 0 1.5752-.24757 3.0892-.69923 4.5073.97557-1.9228 1.5269-4.0887 1.5269-6.3822 0-7.9304-6.5607-14.359-14.653-14.359-8.0936 0-14.654 6.4288-14.654 14.359 0 2.2934.55135 4.4594 1.5269 6.3822-.45165-1.4181-.69923-2.9322-.69923-4.5073" fill="#145570"/><g fill="#38383a"><path d="m32.531 26.885h-2.4443c-.62562 0-1.1375-.50271-1.1375-1.1171v-10.006c0-.61443.51188-1.1171 1.1375-1.1171h2.4443c.62562 0 1.1375.50271 1.1375 1.1171v10.006c0 .61443-.51188 1.1171-1.1375 1.1171"/><path d="m1.5188 26.885h2.4443c.62562 0 1.1375-.50271 1.1375-1.1171v-10.006c0-.61443-.51188-1.1171-1.1375-1.1171h-2.4443c-.62563 0-1.1375.50271-1.1375 1.1171v10.006c0 .61443.51188 1.1171 1.1375 1.1171"/><path d="m17.001.46559c-2.5881 0-5.0291.65189-7.187 1.8012v2.3953c2.1331-1.2965 4.5814-2.0358 7.187-2.0358 2.7655 0 5.3536.83457 7.5764 2.2836v-2.4334c-2.2509-1.2821-4.8317-2.0109-7.5764-2.0109"/><path d="m13.948 31.688v1.7046c0 .43634.36333.79383.80829.79383h4.4884c.44429 0 .80762-.35749.80762-.79383v-1.7046c0-.43634-.36333-.79383-.80762-.79383h-4.4884c-.44496 0-.80829.35749-.80829.79383"/></g><path d="m30.604 26.885s-.01539-.0013143-.023419-.0013143c-1.6748 2.8001-5.6681 4.8977-10.528 5.3879v.75177c5.9679-.084771 10.893-2.7022 11.938-6.1384h-1.3864z" fill="#145570"/></g></g></g></svg>
