<svg focusable="false" viewBox="0 0 24 24" xmlns="http://www.w3.org/2000/svg"><path d="m11.999 0c-6.604 0-11.986 5.372-11.999 11.976a11.923 11.923 0 0 0 3.498 8.493 11.925 11.925 0 0 0 8.479 3.531h.023c6.603 0 11.986-5.373 12-11.978.013-6.616-5.36-12.01-12.001-12.022z" fill="#a13a28"/><path d="m12 10.651 3.372-3.372a.954.954 0 1 1 1.349 1.35l-3.372 3.371 3.372 3.372a.954.954 0 1 1 -1.35 1.349l-3.371-3.372-3.372 3.371a.954.954 0 1 1 -1.349-1.35l3.372-3.37-3.371-3.372a.954.954 0 1 1 1.35-1.348z" fill="#fff"/></svg>
